<svg width="807" height="710" xmlns="http://www.w3.org/2000/svg" xmlns:xlink="http://www.w3.org/1999/xlink" xml:space="preserve" overflow="hidden"><g transform="translate(-871 -377)"><path d="M876.5 377.5 876.5 980.728" stroke="#156082" stroke-width="6.875" stroke-miterlimit="8" fill="none" fill-rule="evenodd"/><path d="M873.5 979.5 1609.13 979.5" stroke="#156082" stroke-width="6.875" stroke-miterlimit="8" fill="none" fill-rule="evenodd"/><path d="M1.99277-2.80094 576.236 405.752 572.251 411.354-1.99277 2.80094ZM564.271 378.126 579.805 412.509 542.229 409.107C540.338 408.936 538.944 407.264 539.115 405.373 539.286 403.483 540.958 402.089 542.849 402.26L574.556 405.131 571.113 409.97 558.005 380.956C557.224 379.226 557.992 377.19 559.723 376.408 561.453 375.627 563.489 376.396 564.271 378.126Z" fill="#156082" transform="matrix(1 0 0 -1 873.5 979)"/><path d="M1064.25 862.672 1068.64 870.511 1075.33 884.904 1080.92 899.732 1085.38 914.929 1088.7 930.426 1090.87 946.158 1091.87 962.058 1091.68 977.93 1084.81 977.848 1085 962.104 1085 962.361 1084.02 946.717 1084.05 946.971 1081.91 931.492 1081.96 931.744 1078.68 916.496 1078.75 916.744 1074.36 901.793 1074.44 902.036 1068.94 887.448 1069.04 887.685 1062.46 873.526 1062.58 873.756 1058.25 866.03ZM1057.25 896.122 1057.92 858.398 1090.43 877.548C1092.07 878.511 1092.61 880.619 1091.65 882.254 1090.68 883.89 1088.58 884.435 1086.94 883.472L1059.51 867.313 1064.69 864.412 1064.13 896.244C1064.09 898.142 1062.53 899.654 1060.63 899.62 1058.73 899.586 1057.22 898.02 1057.25 896.122Z" fill="#156082"/><text font-family="Aptos,Aptos_MSFontService,sans-serif" font-weight="400" font-size="50" transform="matrix(1 0 0 1 1005.68 1042)">Phase Angle</text><path d="M993.128 574.817 1001.54 577.216 1016.35 582.047 1030.95 587.418 1045.3 593.32 1059.41 599.744 1073.25 606.682 1086.82 614.126 1100.1 622.066 1113.07 630.494 1125.72 639.402 1138.04 648.781 1150.02 658.622 1161.63 668.917 1172.88 679.657 1183.73 690.834 1194.15 702.391 1189.04 706.993 1178.67 695.484 1178.76 695.578 1167.99 684.494 1168.08 684.584 1156.93 673.933 1157.03 674.02 1145.51 663.81 1145.6 663.893 1133.73 654.133 1133.83 654.213 1121.61 644.911 1121.71 644.987 1109.16 636.153 1109.27 636.224 1096.4 627.866 1096.51 627.933 1083.35 620.059 1083.46 620.122 1070 612.74 1070.12 612.8 1056.39 605.919 1056.5 605.974 1042.51 599.603 1042.63 599.654 1028.39 593.801 1028.51 593.847 1014.04 588.521 1014.16 588.563 999.471 583.772 999.594 583.81 991.242 581.428ZM1011.75 603.47 985.624 576.252 1022.18 566.906C1024.02 566.435 1025.89 567.545 1026.36 569.384 1026.83 571.224 1025.72 573.096 1023.88 573.566L993.036 581.453 994.665 575.742 1016.71 598.709C1018.03 600.079 1017.98 602.255 1016.61 603.569 1015.24 604.884 1013.07 604.84 1011.75 603.47Z" fill="#156082"/><text font-family="Aptos,Aptos_MSFontService,sans-serif" font-weight="400" font-size="46" transform="matrix(1 0 0 1 933.625 546)">More Inductors</text><path d="M1232.46 754.157 1245.22 775.955 1256.64 798.521 1266.66 821.696 1275.24 845.415 1282.37 869.609 1288.01 894.189 1290.28 906.65 1292.17 919.162 1293.68 931.744 1294.2 937.555 1287.35 938.166 1286.84 932.407 1286.85 932.511 1285.35 920.033 1285.37 920.137 1283.49 907.728 1283.51 907.831 1281.26 895.498 1281.3 895.652 1275.69 871.25 1275.74 871.452 1268.67 847.458 1268.74 847.656 1260.23 824.133 1260.3 824.327 1250.37 801.344 1250.46 801.533 1239.14 779.154 1239.24 779.338 1226.53 757.629ZM1307.42 910.506 1291.38 944.656 1269.55 913.883C1268.45 912.334 1268.82 910.189 1270.37 909.09 1271.92 907.992 1274.06 908.357 1275.16 909.905L1293.58 935.872 1287.67 936.399 1301.2 907.583C1302.01 905.865 1304.06 905.126 1305.78 905.933 1307.49 906.741 1308.23 908.788 1307.42 910.506Z" fill="#156082"/><text font-family="Aptos,Aptos_MSFontService,sans-serif" font-weight="400" font-size="46" transform="matrix(1 0 0 1 1281.96 778)">More Capacitors</text></g></svg>