<svg width="1289" height="1090" xmlns="http://www.w3.org/2000/svg" xmlns:xlink="http://www.w3.org/1999/xlink" xml:space="preserve" overflow="hidden"><g transform="translate(-1330 -674)"><path d="M1333.5 1265.5C1333.5 992.119 1555.12 770.5 1828.5 770.5 2101.88 770.5 2323.5 992.119 2323.5 1265.5 2323.5 1538.88 2101.88 1760.5 1828.5 1760.5 1555.12 1760.5 1333.5 1538.88 1333.5 1265.5Z" stroke="#4EA72E" stroke-width="6.875" stroke-miterlimit="8" fill="#FFFFFF" fill-rule="evenodd"/><path d="M3.25556-3.22619 427.124 424.501 420.613 430.953-3.25556 3.22619ZM430.41 414.794 440 444.006 410.876 434.151Z" fill="#0F9ED5" transform="matrix(1 0 0 -1 1836.5 1276.51)"/><path d="M1845.67 1259.6 2007.99 1615.95 1999.64 1619.75 1837.33 1263.4ZM2014.43 1607.98 2013.31 1638.71 1989.4 1619.38Z" fill="#0F9ED5"/><path d="M2030.34 1030.32 2080.67 1080.65 1625.42 1535.9 1575.09 1485.57Z" stroke="#042433" stroke-width="6.875" stroke-miterlimit="8" fill="#156082" fill-rule="evenodd"/><path d="M1654.81 1084.27 1659.93 1078.15 1667.19 1070.32 1674.76 1062.92 1682.62 1055.96 1690.76 1049.45 1699.16 1043.4 1707.81 1037.8 1716.67 1032.67 1725.74 1028 1735 1023.81 1744.42 1020.1 1754 1016.86 1763.71 1014.12 1773.53 1011.87 1783.45 1010.11 1793.45 1008.86 1803.5 1008.11 1813.6 1007.87 1823.72 1008.15 1833.85 1008.95 1843.96 1010.28 1854.04 1012.14 1864.07 1014.53 1874.03 1017.45 1883.9 1020.93 1893.66 1024.94 1903.3 1029.51 1912.79 1034.64 1922.11 1040.31 1930.67 1046.14 1938.93 1052.4 1946.9 1059.07 1954.4 1066 1942.74 1078.62 1935.39 1071.83 1935.71 1072.11 1928.07 1065.71 1928.4 1065.98 1920.47 1059.98 1920.81 1060.23 1912.61 1054.64 1912.98 1054.88 1904.04 1049.43 1904.42 1049.65 1895.33 1044.74 1895.73 1044.95 1886.5 1040.57 1886.91 1040.75 1877.56 1036.9 1877.98 1037.06 1868.54 1033.74 1868.96 1033.88 1859.44 1031.08 1859.87 1031.19 1850.27 1028.91 1850.71 1029 1841.07 1027.22 1841.51 1027.29 1831.83 1026.02 1832.27 1026.07 1822.59 1025.3 1823.03 1025.33 1813.35 1025.06 1813.78 1025.06 1804.12 1025.29 1804.56 1025.27 1794.94 1025.98 1795.37 1025.94 1785.8 1027.14 1786.23 1027.07 1776.74 1028.75 1777.16 1028.67 1767.76 1030.82 1768.18 1030.72 1758.88 1033.35 1759.29 1033.22 1750.12 1036.31 1750.53 1036.17 1741.5 1039.72 1741.89 1039.56 1733.03 1043.57 1733.41 1043.39 1724.72 1047.86 1725.1 1047.65 1716.6 1052.57 1716.97 1052.35 1708.69 1057.71 1709.04 1057.47 1700.99 1063.27 1701.33 1063.01 1693.52 1069.25 1693.85 1068.98 1686.3 1075.65 1686.62 1075.36 1679.35 1082.46 1679.65 1082.15 1672.69 1089.67 1672.97 1089.35 1667.99 1095.3ZM1661.4 1089.78 1692.38 1090.3 1641.85 1118.06 1649.97 1060.98Z" fill="#156082"/><text font-family="Aptos,Aptos_MSFontService,sans-serif" font-weight="400" font-size="55" transform="matrix(1 0 0 1 1729.35 1186)">Rotor</text><text font-family="Aptos,Aptos_MSFontService,sans-serif" font-weight="400" font-size="55" transform="matrix(1 0 0 1 2190.67 742)">Rotor Magnetic </text><text font-family="Aptos,Aptos_MSFontService,sans-serif" font-weight="400" font-size="55" transform="matrix(1 0 0 1 2190.67 808)">Field</text><text font-family="Aptos,Aptos_MSFontService,sans-serif" font-weight="400" font-size="55" transform="matrix(1 0 0 1 1933.05 1355)">Magnetic Field </text><text font-family="Aptos,Aptos_MSFontService,sans-serif" font-weight="400" font-size="55" transform="matrix(1 0 0 1 1933.05 1421)">from Current</text></g></svg>